<svg width="16" height="18" viewBox="0 0 16 18" fill="none" xmlns="http://www.w3.org/2000/svg">
<path d="M13 17.3337C12.3056 17.3337 11.7153 17.0906 11.2292 16.6045C10.7431 16.1184 10.5 15.5281 10.5 14.8337C10.5 14.7364 10.5069 14.6356 10.5208 14.5312C10.5347 14.4273 10.5556 14.3337 10.5833 14.2503L4.70833 10.8337C4.47222 11.042 4.20833 11.205 3.91667 11.3228C3.625 11.4412 3.31944 11.5003 3 11.5003C2.30556 11.5003 1.71528 11.2573 1.22917 10.7712C0.743056 10.285 0.5 9.69477 0.5 9.00033C0.5 8.30588 0.743056 7.7156 1.22917 7.22949C1.71528 6.74338 2.30556 6.50033 3 6.50033C3.31944 6.50033 3.625 6.55921 3.91667 6.67699C4.20833 6.79533 4.47222 6.95866 4.70833 7.16699L10.5833 3.75033C10.5556 3.66699 10.5347 3.57338 10.5208 3.46949C10.5069 3.36505 10.5 3.26421 10.5 3.16699C10.5 2.47255 10.7431 1.88227 11.2292 1.39616C11.7153 0.910048 12.3056 0.666992 13 0.666992C13.6944 0.666992 14.2847 0.910048 14.7708 1.39616C15.2569 1.88227 15.5 2.47255 15.5 3.16699C15.5 3.86144 15.2569 4.45171 14.7708 4.93783C14.2847 5.42394 13.6944 5.66699 13 5.66699C12.6806 5.66699 12.375 5.60783 12.0833 5.48949C11.7917 5.37171 11.5278 5.20866 11.2917 5.00033L5.41667 8.41699C5.44444 8.50033 5.46528 8.59394 5.47917 8.69783C5.49306 8.80227 5.5 8.9031 5.5 9.00033C5.5 9.09755 5.49306 9.1981 5.47917 9.30199C5.46528 9.40644 5.44444 9.50033 5.41667 9.58366L11.2917 13.0003C11.5278 12.792 11.7917 12.6287 12.0833 12.5103C12.375 12.3925 12.6806 12.3337 13 12.3337C13.6944 12.3337 14.2847 12.5767 14.7708 13.0628C15.2569 13.5489 15.5 14.1392 15.5 14.8337C15.5 15.5281 15.2569 16.1184 14.7708 16.6045C14.2847 17.0906 13.6944 17.3337 13 17.3337Z" fill="#2C3131"/>
</svg>
