<svg width="20" height="20" viewBox="0 0 20 20" fill="none" xmlns="http://www.w3.org/2000/svg">
<g clip-path="url(#clip0_273_12536)">
<path d="M0.42666 9.95734C0.426191 11.6509 0.868691 13.3045 1.7101 14.762L0.346191 19.7418L5.44244 18.4055C6.852 19.1729 8.4313 19.575 10.0362 19.5751H10.0404C15.3385 19.5751 19.6512 15.2639 19.6535 9.96492C19.6545 7.39719 18.6554 4.98266 16.8403 3.16609C15.0254 1.34969 12.6117 0.348828 10.04 0.347656C4.74135 0.347656 0.428926 4.65859 0.426738 9.95734" fill="url(#paint0_linear_273_12536)"/>
<path d="M0.0835938 9.95438C0.0830469 11.7088 0.541406 13.4216 1.41281 14.9312L0 20.0896L5.27898 18.7055C6.73352 19.4985 8.37117 19.9166 10.0376 19.9173H10.0419C15.53 19.9173 19.9977 15.451 20 9.96234C20.0009 7.30234 18.9659 4.80102 17.0859 2.91937C15.2057 1.03797 12.7057 0.00109375 10.0419 0C4.55281 0 0.0857813 4.46563 0.0835938 9.95438ZM3.22734 14.6713L3.03023 14.3584C2.20164 13.0409 1.7643 11.5184 1.76492 9.955C1.76672 5.39289 5.47953 1.68125 10.045 1.68125C12.2559 1.68219 14.3337 2.54406 15.8966 4.10781C17.4593 5.67172 18.3192 7.75063 18.3187 9.96172C18.3166 14.5238 14.6037 18.2359 10.0419 18.2359H10.0386C8.5532 18.2352 7.09641 17.8363 5.82594 17.0824L5.52359 16.9031L2.39094 17.7245L3.22734 14.6712V14.6713Z" fill="url(#paint1_linear_273_12536)"/>
<path d="M7.55303 5.79313C7.36662 5.37884 7.17045 5.37048 6.99318 5.36321C6.84803 5.35696 6.68209 5.35743 6.51631 5.35743C6.35037 5.35743 6.08076 5.41985 5.85287 5.66868C5.62475 5.91774 4.98193 6.51962 4.98193 7.74376C4.98193 8.96798 5.87357 10.151 5.99787 10.3172C6.12232 10.4831 7.7192 13.0756 10.2483 14.0729C12.3501 14.9017 12.7779 14.7369 13.234 14.6953C13.6903 14.6539 14.7062 14.0936 14.9135 13.5126C15.1209 12.9316 15.1209 12.4337 15.0587 12.3296C14.9965 12.2259 14.8306 12.1637 14.5818 12.0393C14.3329 11.9149 13.1096 11.3129 12.8815 11.2299C12.6534 11.1469 12.4876 11.1055 12.3216 11.3546C12.1557 11.6034 11.6792 12.1637 11.534 12.3296C11.3889 12.4959 11.2437 12.5166 10.9949 12.3922C10.7459 12.2674 9.94459 12.0049 8.99389 11.1574C8.2542 10.4978 7.75482 9.68337 7.60967 9.43423C7.46451 9.18548 7.59412 9.05063 7.71889 8.92665C7.83068 8.81516 7.96779 8.6361 8.09232 8.49087C8.21639 8.34556 8.25779 8.24188 8.34076 8.07595C8.42381 7.90985 8.38225 7.76454 8.32014 7.64009C8.25779 7.51563 7.77428 6.28509 7.55303 5.79313Z" fill="white"/>
</g>
<defs>
<linearGradient id="paint0_linear_273_12536" x1="965.71" y1="1939.76" x2="965.71" y2="0.347656" gradientUnits="userSpaceOnUse">
<stop stop-color="#1FAF38"/>
<stop offset="1" stop-color="#60D669"/>
</linearGradient>
<linearGradient id="paint1_linear_273_12536" x1="1000" y1="2008.96" x2="1000" y2="0" gradientUnits="userSpaceOnUse">
<stop stop-color="#F9F9F9"/>
<stop offset="1" stop-color="white"/>
</linearGradient>
<clipPath id="clip0_273_12536">
<rect width="20" height="20" fill="white"/>
</clipPath>
</defs>
</svg>
